#!OML:ASF H:\Dans Jumps\Project 1\Capture day 1\Session 1\subject.ASF
:FULLY-SPECIFIED
:DEGREES
401
root 0.335927 16.9624 -10.0598 20.0374 2.07513 -1.59904
lowerback 16.2314 0.508137 -2.52271
upperback 3.29429 0.41189 2.57121
thorax -5.61638 0.256868 4.08418
lowerneck -17.0604 0.173051 -0.705284
upperneck 13.683 0.541044 -0.766438
head 6.98646 0.150911 -0.0760744
rclavicle -2.18663e-015 -9.34288e-015
rhumerus -20.0576 -1.2451 -79.1722
rradius 46.2039
rwrist 20.0311
rhand -22.8656 -23.2825
rfingers 7.12502
rthumb 3.57287 -53.2323
lclavicle -2.18663e-015 -9.34288e-015
lhumerus -22.2658 -11.1827 85.559
lradius 38.3408
lwrist 34.252
lhand -27.5721 -8.32046
lfingers 7.12502
lthumb -0.972633 21.6571
rfemur -29.6161 -4.58752 20.4782
rtibia 52.1813
rfoot -15.8222 -10.0425
rtoes -26.5277
lfemur -31.5143 8.23785 -17.1344
ltibia 53.7406
lfoot -10.8335 9.56437
ltoes -32.3135
402
root 0.346848 17.1949 -9.76465 18.8432 2.02548 -1.51739
lowerback 14.8624 0.414935 -2.48683
upperback 3.55311 0.306663 2.45434
thorax -4.58862 0.181127 3.94532
lowerneck -16.1214 0.194509 -0.682716
upperneck 14.6337 0.552818 -0.703266
head 7.13591 0.160507 -0.0584148
rclavicle 3.77691e-015 -3.97569e-015
rhumerus -19.7841 -0.796966 -79.7742
rradius 46.4223
rwrist 19.7821
rhand -23.059 -22.895
rfingers 7.12502
rthumb 3.38615 -52.8478
lclavicle 3.77691e-015 -3.97569e-015
lhumerus -21.816 -11.9098 85.7744
lradius 38.6883
lwrist 34.2271
lhand -27.3723 -8.42996
lfingers 7.12502
lthumb -0.779701 21.5484
rfemur -26.9913 -4.70141 20.1219
rtibia 50.5916
rfoot -11.7255 -8.63119
rtoes -26.6179
lfemur -28.6521 8.03144 -16.864
ltibia 51.6652
lfoot -6.97304 7.46415
ltoes -32.3106
403
root 0.358794 17.4348 -9.47039 17.6563 1.94783 -1.45184
lowerback 13.6299 0.347964 -2.43168
upperback 3.81516 0.237515 2.34381
thorax -3.63684 0.125451 3.79723
lowerneck -15.2341 0.204798 -0.71598
upperneck 15.5378 0.558258 -0.618653
head 7.27748 0.166132 -0.0253235
rclavicle 1.09332e-015 1.45113e-014
rhumerus -19.6337 -0.265406 -80.3232
rradius 46.6917
rwrist 19.4697
rhand -23.2691 -22.5143
rfingers 7.12502
rthumb 3.18327 -52.4703
lclavicle 1.09332e-015 1.45113e-014
lhumerus -21.4463 -12.6042 85.9983
lradius 39.084
lwrist 34.0658
lhand -27.1316 -8.54676
lfingers 7.12502
lthumb -0.547146 21.4323
rfemur -24.5428 -4.63306 19.7491
rtibia 49.093
rfoot -7.1618 -7.4656
rtoes -25.9986
lfemur -25.9077 7.61962 -16.586
ltibia 49.6016
lfoot -2.52985 5.55874
ltoes -31.8693
404
root 0.371015 17.6796 -9.17927 16.4953 1.8577 -1.39757
lowerback 12.5432 0.301319 -2.3664
upperback 4.06606 0.194738 2.24242
thorax -2.77948 0.0858805 3.65107
lowerneck -14.423 0.20648 -0.789481
upperneck 16.4088 0.558109 -0.522639
head 7.42043 0.167603 0.0176688
rclavicle -1.88845e-015 1.61016e-014
rhumerus -19.5835 0.333099 -80.8141
rradius 46.9735
rwrist 19.1836
rhand -23.4283 -22.1985
rfingers 7.12502
rthumb 3.02948 -52.1567
lclavicle -1.88845e-015 1.61016e-014
lhumerus -21.1781 -13.2448 86.2288
lradius 39.5459
lwrist 33.8546
lhand -26.8718 -8.69437
lfingers 7.12502
lthumb -0.296237 21.2852
rfemur -22.3102 -4.40224 19.3871
rtibia 47.719
rfoot -2.22501 -6.68048
rtoes -24.3274
lfemur -23.3303 7.00887 -16.324
ltibia 47.6023
lfoot 2.43032 4.00122
ltoes -30.8363
405
root 0.383028 17.9264 -8.89271 15.3894 1.76341 -1.35788
lowerback 11.5783 0.270522 -2.29541
upperback 4.29628 0.17191 2.15181
thorax -2.01218 0.0592166 3.51244
lowerneck -13.6932 0.197842 -0.878243
upperneck 17.2424 0.547082 -0.432274
head 7.56488 0.162169 0.0604597
rclavicle -1.19271e-015 1.07344e-014
rhumerus -19.6068 0.965504 -81.2495
rradius 47.2384
rwrist 18.9714
rhand -23.4787 -21.9882
rfingers 7.12502
rthumb 2.98076 -51.9471
lclavicle -1.19271e-015 1.07344e-014
lhumerus -21.0171 -13.8179 86.463
lradius 40.0804
lwrist 33.6805
lhand -26.6512 -8.87004
lfingers 7.12502
lthumb -0.083194 21.1097
rfemur -20.3431 -4.05233 19.068
rtibia 46.5139
rfoot 2.93608 -6.36235
rtoes -21.2049
lfemur -20.9887 6.25514 -16.096
ltibia 45.743
lfoot 7.82206 2.93322
ltoes -28.8891
406
root 0.394102 18.1731 -8.61221 14.382 1.69076 -1.32676
lowerback 10.7007 0.242321 -2.22723
upperback 4.49074 0.151005 2.07162
thorax -1.32979 0.0363677 3.38794
lowerneck -13.0414 0.182585 -0.968708
upperneck 18.0288 0.526922 -0.346094
head 7.70761 0.151704 0.101517
rclavicle 1.09332e-015 1.19271e-015
rhumerus -19.685 1.59636 -81.6385
rradius 47.4684
rwrist 18.8476
rhand -23.4453 -21.8258
rfingers 7.12502
rthumb 3.01306 -51.7843
lclavicle 1.09332e-015 1.19271e-015
lhumerus -20.956 -14.3096 86.6961
lradius 40.6732
lwrist 33.6307
lhand -26.4864 -9.07265
lfingers 7.12502
lthumb 0.075958 20.9071
rfemur -18.7036 -3.66198 18.814
rtibia 45.5299
rfoot 8.08274 -6.48871
rtoes -16.1283
lfemur -18.9747 5.42801 -15.9166
ltibia 44.1135
lfoot 13.4809 2.45264
ltoes -25.6327
407
root 0.403761 18.4175 -8.33846 13.5072 1.6515 -1.30332
lowerback 9.87693 0.20874 -2.16738
upperback 4.63873 0.121411 1.99868
thorax -0.723956 0.0116961 3.27789
lowerneck -12.474 0.164814 -1.03137
upperneck 18.7682 0.499616 -0.274991
head 7.85017 0.1382 0.132571
rclavicle 1.49089e-015 1.25234e-014
rhumerus -19.8124 2.18245 -81.9962
rradius 47.6713
rwrist 18.8022
rhand -23.3313 -21.7053
rfingers 7.12502
rthumb 3.12316 -51.6622
lclavicle 1.49089e-015 1.25234e-014
lhumerus -20.979 -14.7112 86.9206
lradius 41.2983
lwrist 33.7562
lhand -26.3905 -9.30155
lfingers 7.12502
lthumb 0.168605 20.6781
rfemur -17.4339 -3.30656 18.6386
rtibia 44.8083
rfoot 12.8116 -7.00652
rtoes -9.61406
lfemur -17.3652 4.63552 -15.7901
ltibia 42.8015
lfoot 19.0386 2.56576
ltoes -21.1204
408
root 0.411591 18.6578 -8.07206 12.7941 1.65951 -1.28358
lowerback 9.07035 0.161621 -2.12297
upperback 4.73741 0.0724025 1.9318
thorax -0.176534 -0.0208136 3.18518
lowerneck -11.9772 0.148243 -1.06477
upperneck 19.4402 0.468243 -0.208989
head 7.98356 0.124519 0.156865
rclavicle 4.47266e-015 5.76476e-015
rhumerus -19.9739 2.67973 -82.3323
rradius 47.8451
rwrist 18.8218
rhand -23.1937 -21.5908
rfingers 7.12502
rthumb 3.25599 -51.5457
lclavicle 4.47266e-015 5.76476e-015
lhumerus -21.0547 -15.0196 87.1316
lradius 41.9242
lwrist 34.0655
lhand -26.3551 -9.53816
lfingers 7.12502
lthumb 0.202821 20.4415
rfemur -16.5613 -3.05208 18.5427
rtibia 44.3718
rfoot 16.7396 -7.6668
rtoes -2.54413
lfemur -16.2175 3.98005 -15.7121
ltibia 41.8722
lfoot 23.9318 3.12361
ltoes -15.9905
